Coordinates
version=1
nRows=19
nColumns=36
inDegrees=yes

Units are S.I. units (second, meters, Newtons, ...)
If the header above contains a line with 'inDegrees', this indicates whether rotational values are in degrees (yes) or radians (no).

endheader
time	pelvis_tilt	pelvis_list	pelvis_rotation	pelvis_tx	pelvis_ty	pelvis_tz	hip_flexion_r	hip_adduction_r	hip_rotation_r	knee_angle_r	knee_angle_r_beta	ankle_angle_r	subtalar_angle_r	mtp_angle_r	hip_flexion_l	hip_adduction_l	hip_rotation_l	knee_angle_l	knee_angle_l_beta	ankle_angle_l	subtalar_angle_l	mtp_angle_l	lumbar_extension	lumbar_bending	lumbar_rotation	arm_flex_r	arm_add_r	arm_rot_r	elbow_flex_r	pro_sup_r	arm_flex_l	arm_add_l	arm_rot_l	elbow_flex_l	pro_sup_l
      4.72881360	     -4.69405305	     -0.59731616	      4.34418411	      0.34592797	      0.95246810	      0.00137236	      1.66745471	     -4.25773439	      2.87986763	      0.83354713	      0.01454814	      4.98773179	     -5.13211811	     -7.49999987	      2.96467714	     -5.08159392	      2.60757774	      0.43451445	      0.00758371	      1.57358894	     -7.87045115	     -7.49999987	      1.13520443	     -4.69608590	     -7.73406146	    162.60935364	    -23.28616663	     41.73769518	     38.77584362	     70.14103652	     45.45133161	     -8.27813592	      1.10137315	     24.10953729	     74.37408151
      4.74576270	     -4.65346122	     -0.61621611	      4.34783212	      0.34600532	      0.95262441	      0.00144053	      1.62666947	     -4.23107151	      2.79478518	      0.84923575	      0.01482196	      5.01485573	     -5.05670289	     -7.49999987	      2.92478613	     -5.10963897	      2.55994983	      0.44280121	      0.00772834	      1.73027262	     -7.61037778	     -7.49999987	      1.22760253	     -4.69242647	     -8.05748570	    161.39459626	    -23.58388791	     42.24664661	     38.79201089	     69.70823562	     44.95691882	     -8.73604702	      1.15526446	     24.61224640	     73.47649293
      4.76271190	     -4.64184618	     -0.64386322	      4.36784192	      0.34600516	      0.95268620	      0.00137650	      1.62397055	     -4.18873301	      2.80029928	      0.86227620	      0.01504956	      4.99162705	     -5.23858014	     -7.49999987	      2.92632808	     -5.13793199	      2.81046495	      0.46107043	      0.00804720	      1.59947476	     -8.09059193	     -7.49999987	      1.13947377	     -4.66868820	     -7.86789476	    161.80305915	    -23.93635359	     45.11571650	     37.15106323	     70.54979812	     45.39784674	     -8.77527851	      3.58169829	     23.34884121	     73.38126855
      4.77966100	     -4.67112973	     -0.63716004	      4.34447259	      0.34606988	      0.94965092	      0.00138046	      1.65516693	     -4.19827712	      2.83147276	      0.87908539	      0.01534293	      5.06141014	     -5.30258029	     -7.49999987	      2.95374269	     -5.13503268	      2.92605115	      0.47862296	      0.00835355	      1.58982375	     -8.32564982	     -7.49999987	      1.23889623	     -4.63883277	     -8.03249813	    161.35054259	    -23.46144254	     45.90467583	     36.16766975	     70.52317120	     45.52966426	     -8.86708955	      3.86891468	     22.40940865	     73.20480363
      4.79661020	     -4.85697924	     -0.60859039	      4.21511826	      0.34644860	      0.94979499	      0.00157384	      1.86537990	     -4.22773985	      2.76672238	      0.90153149	      0.01573469	      5.30840659	     -4.83423983	     -7.49999987	      3.10995341	     -5.12452177	      2.49565202	      0.47677360	      0.00832127	      1.83233280	     -7.62708771	     -7.49999987	      1.65985835	     -4.90883937	     -8.42091614	    159.96900314	    -23.66721471	     46.40070779	     36.96508955	     69.34755133	     44.51233557	     -9.43055274	      3.70637538	     23.58626748	     71.64189402
      4.81355930	     -4.69431307	     -0.63126754	      4.30288224	      0.34626951	      0.95303750	      0.00116296	      1.65510753	     -4.20851599	      2.85022867	      0.86477947	      0.01509325	      5.18441702	     -5.41858765	     -7.49999987	      2.98330868	     -5.14258924	      3.17181100	      0.51296429	      0.00895292	      1.39464932	     -8.82580681	     -7.49999987	      1.31215500	     -4.59964546	     -8.42367890	    160.02257388	    -22.80051025	     47.88130536	     36.45715114	     69.39350784	     45.02206243	     -9.48263286	      5.56095645	     21.43820939	     71.70108599
      4.83050850	     -4.63493254	     -0.60508911	      4.27314581	      0.34619523	      0.95311879	      0.00112272	      1.60624009	     -4.23646473	      2.80648603	      0.88056071	      0.01536868	      5.22053842	     -5.44648747	     -7.49999987	      2.92265675	     -5.12987860	      3.22127156	      0.53439227	      0.00932690	      1.38567793	     -8.78777728	     -7.49999987	      1.16416476	     -4.62358785	     -8.23089798	    159.45628989	    -22.49271097	     48.20672922	     36.51546580	     69.44265088	     44.88786326	     -9.49171233	      5.65599154	     21.38505633	     71.71578518
      4.84745760	     -4.59057979	     -0.59048527	      4.22233918	      0.34626449	      0.95319261	      0.00123573	      1.51964549	     -4.23341607	      2.95317962	      0.78968775	      0.01378265	      5.33124195	     -5.37223486	     -7.49999987	      2.85368824	     -5.12439158	      3.14196092	      0.53059265	      0.00926059	      1.36256242	     -8.82050050	     -7.49999987	      1.26705393	     -4.58632492	     -8.69646324	    158.11625015	    -22.40952267	     49.26294459	     36.85598846	     69.66319531	     44.31054730	    -10.27797071	      6.15850830	     21.24294325	     71.79792059
      4.86440680	     -4.67505573	     -0.60037547	      4.25648401	      0.34619112	      0.95010305	      0.00130961	      1.58999635	     -4.22116114	      2.94845189	      0.74963155	      0.01308354	      5.38371136	     -5.33406673	     -7.49999987	      2.95080133	     -5.13000828	      3.18665779	      0.54077800	      0.00943836	      1.40224239	     -8.74110240	     -7.49999987	      1.35646476	     -4.60800458	     -8.29118674	    157.46791446	    -22.26257910	     50.12920942	     35.87524719	     71.63894116	     44.97905905	    -11.00959744	     14.20002960	     20.67578346	     65.86502890
      4.88135590	     -4.69745853	     -0.60501029	      4.24508198	      0.34623293	      0.95321640	      0.00143930	      1.63021183	     -4.23864435	      3.05281372	      0.73979227	      0.01291181	      5.39610120	     -5.31188605	     -7.49999987	      2.96242511	     -5.12883443	      3.24413647	      0.54874747	      0.00957745	      1.38341296	     -8.83575772	     -7.49999987	      1.41134181	     -4.59861042	     -8.57927830	    156.06912537	    -21.62443990	     49.48548922	     33.96533905	     70.66716159	     44.45455942	    -11.48692405	     14.15119989	     21.17837110	     65.37271263
      4.89830510	     -4.60303639	     -0.65572008	      4.19944036	      0.34610023	      0.95338201	      0.00131133	      1.55835848	     -4.20520470	      3.07038227	      0.73434160	      0.01281668	      5.33613029	     -5.28284983	     -7.49999987	      2.88237179	     -5.20027109	      3.26266781	      0.56568612	      0.00987309	      1.36380104	     -8.83910675	     -7.49999987	      1.16515308	     -4.54896220	     -8.34054148	    155.15952564	    -21.79396085	     49.54467102	     33.60225099	     70.67875596	     44.34854374	    -11.38602188	     14.23705314	     21.32055241	     65.39335537
      4.91525420	     -4.69421959	     -0.64172238	      4.16541268	      0.34624067	      0.95031720	      0.00143278	      1.64631088	     -4.25371380	      3.10007443	      0.70099242	      0.01223463	      5.25358694	     -5.30140683	     -7.49999987	      2.96595622	     -5.18359551	      3.22939204	      0.54898103	      0.00958153	      1.38467451	     -8.87950566	     -7.49999987	      1.54063610	     -4.63623283	     -9.07237805	    152.05174179	    -20.92528306	     42.25710446	     33.83449156	     74.76065842	     43.34983337	    -12.20539705	     15.08992969	     22.35452378	     64.93613830
      4.93220340	     -4.61659342	     -0.68883211	      4.15229782	      0.34616946	      0.95065144	      0.00133692	      1.56735745	     -4.22314365	      3.08672650	      0.69578200	      0.01214369	      5.20284970	     -5.30476160	     -7.49999987	      2.87011614	     -5.26122947	      3.17177793	      0.55946818	      0.00976456	      1.45402936	     -9.00171399	     -7.49999987	      1.37430937	     -4.50362920	     -8.87100219	    151.42434211	    -20.96611855	     42.25325149	     33.94115211	     74.74765613	     43.11936383	    -11.93021254	     15.17329379	     22.49805878	     64.95376083
      4.94915250	     -4.73004732	     -0.69589279	      4.16920098	      0.34631657	      0.95081779	      0.00156616	      1.68210779	     -4.23136541	      3.18218475	      0.69865176	      0.01219377	      5.06294698	     -5.53034895	     -7.49999987	      2.98264106	     -5.29221777	      3.24684392	      0.58099411	      0.01014026	      1.31210678	     -9.41560938	     -7.49999987	      1.56668297	     -4.72765085	     -9.10735081	    148.62332524	    -21.18441038	     37.73680947	     37.31581953	     73.99989999	     42.53484749	    -12.13749319	     15.11292997	     23.29714160	     64.95796892
      4.96610170	     -4.66409782	     -0.71364112	      4.14863005	      0.34636914	      0.95124283	      0.00144599	      1.62413200	     -4.22324452	      3.24316082	      0.71547814	      0.01248745	      4.96180080	     -5.62824752	     -7.49999987	      2.90217704	     -5.32078693	      3.32415577	      0.57782351	      0.01008492	      1.35129872	     -9.64340709	     -7.49999987	      1.47328028	     -4.70287075	     -9.12641536	    146.56610721	    -21.35091626	     36.56553304	     40.05487491	     73.94845719	     41.80788559	    -12.13885714	     13.96392522	     24.27358775	     64.85138435
      4.98305080	     -4.67463144	     -0.74806892	      4.20375330	      0.34642060	      0.95141785	      0.00148210	      1.63430020	     -4.18869614	      3.15403435	      0.73122512	      0.01276229	      4.93598672	     -5.59941211	     -7.49999987	      2.92823146	     -5.35522900	      3.43922172	      0.59383648	      0.01036440	      1.40806181	     -9.70883093	     -7.49999987	      1.62851098	     -4.66118971	     -9.43551941	    144.06362339	    -20.89461726	     34.38315122	     40.80364866	     78.54859559	     40.86984514	    -12.19395538	     12.08567412	     25.25287771	     66.34008483
      5.00000000	     -4.57535134	     -0.78243842	      4.13603347	      0.34636083	      0.95471622	      0.00141019	      1.55108554	     -4.15046314	      3.27355554	      0.73347305	      0.01280152	      4.79394495	     -5.67853350	     -7.49999987	      2.82065170	     -5.39614238	      3.37881784	      0.58602294	      0.01022803	      1.38511882	     -9.70446993	     -7.49999987	      1.59389680	     -4.53807360	     -9.28910564	    143.00804334	    -21.34993201	     38.10707135	     40.58102994	     73.80764864	     40.06570285	    -12.05440455	     12.53122099	     26.04292008	     64.79298016
      5.01694920	     -4.46919666	     -0.82123777	      4.08240186	      0.34621195	      0.95469739	      0.00156571	      1.42495317	     -4.09018210	      3.27974746	      0.71037780	      0.01239843	      4.80640533	     -5.41018761	     -7.49999987	      2.71878363	     -5.45918553	      3.26123561	      0.58408573	      0.01019422	      1.43848582	     -9.50264224	     -7.49999987	      1.59924662	     -4.54205291	     -9.34287201	    141.38680497	    -21.78221119	     38.61023172	     40.76451440	     74.44597306	     39.48514375	    -12.10669493	     13.55157406	     25.86697331	     65.42622445
      5.03389830	     -4.42556527	     -0.85899697	      4.03840913	      0.34618458	      0.95473082	      0.00138980	      1.37746176	     -4.02722001	      3.36112901	      0.71855277	      0.01254111	      4.63013614	     -5.40277382	     -7.49999987	      2.66503726	     -5.50220646	      3.29198891	      0.57956610	      0.01011534	      1.35156084	     -9.61641700	     -7.49999987	      1.74295839	     -4.48731324	     -9.95913500	    139.16430782	    -21.51065468	     36.81351365	     41.47912070	     78.94071710	     38.24937670	    -12.66477050	     11.83185554	     26.61412687	     66.95572567
